<svg width="425" height="487" viewBox="0 0 425 487" fill="none" xmlns="http://www.w3.org/2000/svg">
<rect width="233.696" height="231.116" rx="5" transform="matrix(-1.58247e-08 1 -0.866025 0.5 424.152 137)" fill="#9558B2"/>
<rect x="-1.29904" y="2.25" width="230.696" height="228.116" rx="3.5" transform="matrix(-1.58247e-08 1 -0.866025 0.5 424.802 139.424)" stroke="black" stroke-opacity="0.4" stroke-width="3"/>
<line x1="268.5" y1="228.459" x2="268.5" y2="458.459" stroke="black" stroke-opacity="0.4" stroke-width="3"/>
<line x1="291.5" y1="215.459" x2="291.5" y2="445.459" stroke="black" stroke-opacity="0.4" stroke-width="3"/>
<line x1="307.5" y1="206.459" x2="307.5" y2="436.459" stroke="black" stroke-opacity="0.4" stroke-width="3"/>
<line x1="382.5" y1="162.459" x2="382.5" y2="392.459" stroke="black" stroke-opacity="0.4" stroke-width="3"/>
<line x1="226.244" y1="310.163" x2="423.244" y2="195.163" stroke="black" stroke-opacity="0.4" stroke-width="3"/>
<line x1="226.244" y1="425.163" x2="423.244" y2="310.163" stroke="black" stroke-opacity="0.4" stroke-width="3"/>
<line x1="226.244" y1="465.163" x2="423.244" y2="350.163" stroke="black" stroke-opacity="0.4" stroke-width="3"/>
<line x1="226.244" y1="326.163" x2="423.244" y2="211.163" stroke="black" stroke-opacity="0.4" stroke-width="3"/>
<rect width="233.812" height="229.785" rx="5" transform="matrix(-5.98857e-08 1 -0.866025 -0.5 199 252.893)" fill="#389826"/>
<rect x="-1.29904" y="0.75" width="230.812" height="226.785" rx="3.5" transform="matrix(-5.98857e-08 1 -0.866025 -0.5 198.35 255.317)" stroke="black" stroke-opacity="0.4" stroke-width="3"/>
<line x1="15.5" y1="149" x2="15.5" y2="379" stroke="black" stroke-opacity="0.4" stroke-width="3"/>
<line x1="46.5" y1="167" x2="46.5" y2="397" stroke="black" stroke-opacity="0.4" stroke-width="3"/>
<line x1="69.5" y1="180" x2="69.5" y2="410" stroke="black" stroke-opacity="0.4" stroke-width="3"/>
<line x1="149.5" y1="227" x2="149.5" y2="457" stroke="black" stroke-opacity="0.4" stroke-width="3"/>
<line x1="186.5" y1="248" x2="186.5" y2="478" stroke="black" stroke-opacity="0.4" stroke-width="3"/>
<line x1="0.744212" y1="198.698" x2="196.744" y2="310.698" stroke="black" stroke-opacity="0.4" stroke-width="3"/>
<line x1="0.744212" y1="214.698" x2="196.744" y2="326.698" stroke="black" stroke-opacity="0.4" stroke-width="3"/>
<line x1="0.744212" y1="313.698" x2="196.744" y2="425.698" stroke="black" stroke-opacity="0.4" stroke-width="3"/>
<line x1="1.74421" y1="354.698" x2="197.744" y2="466.698" stroke="black" stroke-opacity="0.4" stroke-width="3"/>
<rect width="232.257" height="235.614" rx="5" transform="matrix(-0.866025 0.5 -0.866025 -0.5 412.188 117.807)" fill="#CB3C33"/>
<rect x="-2.59808" y="8.9407e-08" width="229.257" height="232.614" rx="3.5" transform="matrix(-0.866025 0.5 -0.866025 -0.5 407.34 119.106)" stroke="black" stroke-opacity="0.4" stroke-width="3"/>
<path d="M21 122L218 7" stroke="black" stroke-opacity="0.4" stroke-width="3"/>
<line x1="51.2438" y1="140.705" x2="248.244" y2="25.7046" stroke="black" stroke-opacity="0.4" stroke-width="3"/>
<line x1="74.2438" y1="153.705" x2="271.244" y2="38.7046" stroke="black" stroke-opacity="0.4" stroke-width="3"/>
<line x1="154.244" y1="199.705" x2="351.244" y2="84.7046" stroke="black" stroke-opacity="0.4" stroke-width="3"/>
<line x1="191.244" y1="220.705" x2="388.244" y2="105.705" stroke="black" stroke-opacity="0.4" stroke-width="3"/>
<line x1="61.7449" y1="86.698" x2="262.745" y2="201.698" stroke="black" stroke-opacity="0.4" stroke-width="3"/>
<line x1="85.7449" y1="73.698" x2="286.745" y2="188.698" stroke="black" stroke-opacity="0.4" stroke-width="3"/>
<line x1="100.747" y1="63.6992" x2="302.747" y2="179.699" stroke="black" stroke-opacity="0.4" stroke-width="3"/>
<line x1="175.745" y1="20.698" x2="376.745" y2="135.698" stroke="black" stroke-opacity="0.4" stroke-width="3"/>
</svg>
